ffmpeg started on 2016-12-07 at 11:53:11
Report written to "Output/x264/results/ffmpeg/sintelslow7000k.log"
Command line:
Tools/ffmpeg/ffmpeg -benchmark -y -i Input/y4m/sintel.y4m -c:v libx264 -preset slow -b:v 7000k -an Output/x264/encoded/sintelslow7000k.mkv
ffmpeg version N-82227-gdb23fde Copyright (c) 2000-2016 the FFmpeg developers
  built with gcc 5.4.0 (Ubuntu 5.4.0-6ubuntu1~16.04.2) 20160609
  configuration: --prefix=/home/jaroslav/ffmpeg_build --pkg-config-flags=--static --extra-cflags=-I/home/jaroslav/ffmpeg_build/include --extra-ldflags=-L/home/jaroslav/ffmpeg_build/lib --bindir=/home/jaroslav/bin --enable-gpl --enable-libass --enable-libfdk-aac --enable-libfreetype --enable-libmp3lame --enable-libopus --enable-libtheora --enable-libvorbis --enable-libvpx --enable-libx264 --enable-libx265 --enable-nvenc --enable-libmfx --enable-libxvid --enable-libgsm --enable-libopencore-amrnb --enable-version3 --enable-nonfree
  libavutil      55. 35.100 / 55. 35.100
  libavcodec     57. 66.101 / 57. 66.101
  libavformat    57. 57.100 / 57. 57.100
  libavdevice    57.  2.100 / 57.  2.100
  libavfilter     6. 66.100 /  6. 66.100
  libswscale      4.  3.100 /  4.  3.100
  libswresample   2.  4.100 /  2.  4.100
  libpostproc    54.  2.100 / 54.  2.100
Input #0, yuv4mpegpipe, from 'Input/y4m/sintel.y4m':
  Duration: 00:00:20.83, start: 0.000000, bitrate: 2057307 kb/s
    Stream #0:0: Video: rawvideo (I420 / 0x30323449), yuv420p(progressive), 4096x1744, SAR 1:1 DAR 256:109, 24 fps, 24 tbr, 24 tbn, 24 tbc
[libx264 @ 0x4052120] using SAR=1/1
[libx264 @ 0x4052120] using cpu capabilities: MMX2 SSE2Fast SSSE3 SSE4.2 AVX FMA3 AVX2 LZCNT BMI2
[libx264 @ 0x4052120] profile High, level 5.1
[libx264 @ 0x4052120] 264 - core 148 - H.264/MPEG-4 AVC codec - Copyleft 2003-2016 - http://www.videolan.org/x264.html - options: cabac=1 ref=5 deblock=1:0:0 analyse=0x3:0x113 me=hex subme=8 psy=1 psy_rd=1.00:0.00 mixed_ref=1 me_range=16 chroma_me=1 trellis=2 8x8dct=1 cqm=0 deadzone=21,11 fast_pskip=1 chroma_qp_offset=-2 threads=6 lookahead_threads=1 sliced_threads=0 nr=0 decimate=1 interlaced=0 bluray_compat=0 constrained_intra=0 bframes=3 b_pyramid=2 b_adapt=1 b_bias=0 direct=3 weightb=1 open_gop=0 weightp=2 keyint=250 keyint_min=24 scenecut=40 intra_refresh=0 rc_lookahead=50 rc=abr mbtree=1 bitrate=7000 ratetol=1.0 qcomp=0.60 qpmin=0 qpmax=69 qpstep=4 ip_ratio=1.40 aq=1:1.00
Output #0, matroska, to 'Output/x264/encoded/sintelslow7000k.mkv':
  Metadata:
    encoder         : Lavf57.57.100
    Stream #0:0: Video: h264 (libx264) (H264 / 0x34363248), yuv420p, 4096x1744 [SAR 1:1 DAR 256:109], q=-1--1, 7000 kb/s, 24 fps, 1k tbn, 24 tbc
    Metadata:
      encoder         : Lavc57.66.101 libx264
    Side data:
      cpb: bitrate max/min/avg: 0/0/7000000 buffer size: 0 vbv_delay: -1
Stream mapping:
  Stream #0:0 -> #0:0 (rawvideo (native) -> h264 (libx264))
Press [q] to stop, [?] for help
frame=    9 fps=0.0 q=0.0 size=       0kB time=00:00:00.00 bitrate=N/A speed=   0x    frame=   18 fps= 17 q=0.0 size=       0kB time=00:00:00.00 bitrate=N/A speed=   0x    frame=   27 fps= 17 q=0.0 size=       0kB time=00:00:00.00 bitrate=N/A speed=   0x    frame=   36 fps= 17 q=0.0 size=       0kB time=00:00:00.00 bitrate=N/A speed=   0x    frame=   45 fps= 17 q=0.0 size=       0kB time=00:00:00.00 bitrate=N/A speed=   0x    frame=   54 fps= 17 q=0.0 size=       0kB time=00:00:00.00 bitrate=N/A speed=   0x    frame=   57 fps=9.4 q=0.0 size=       0kB time=00:00:00.00 bitrate=N/A speed=   0x    frame=   58 fps=5.8 q=0.0 size=       0kB time=00:00:00.00 bitrate=N/A speed=   0x    frame=   59 fps=4.8 q=0.0 size=       0kB time=00:00:00.00 bitrate=N/A speed=   0x    frame=   64 fps=4.8 q=37.0 size=       1kB time=00:00:00.04 bitrate= 136.6kbits/s speed=0.00321x    frame=   67 fps=4.7 q=45.0 size=       1kB time=00:00:00.16 bitrate=  35.0kbits/s speed=0.0117x    frame=   71 fps=4.7 q=46.0 size=       1kB time=00:00:00.33 bitrate=  17.6kbits/s speed=0.0221x    frame=   76 fps=4.8 q=46.0 size=       1kB time=00:00:00.54 bitrate=  10.8kbits/s speed=0.0339x    frame=   82 fps=4.9 q=45.0 size=       1kB time=00:00:00.79 bitrate=   7.4kbits/s speed=0.0473x    frame=   85 fps=4.9 q=45.0 size=       1kB time=00:00:00.91 bitrate=   6.4kbits/s speed=0.0531x    frame=   89 fps=5.0 q=44.0 size=       1kB time=00:00:01.08 bitrate=   5.4kbits/s speed=0.0607x    frame=   92 fps=5.0 q=44.0 size=       1kB time=00:00:01.20 bitrate=   4.9kbits/s speed=0.0657x    frame=   96 fps=5.1 q=43.0 size=       1kB time=00:00:01.37 bitrate=   4.3kbits/s speed=0.0724x    frame=   99 fps=5.1 q=43.0 size=       1kB time=00:00:01.50 bitrate=   3.9kbits/s speed=0.0766x    frame=  102 fps=5.1 q=43.0 size=       1kB time=00:00:01.62 bitrate=   3.6kbits/s speed=0.0808x    frame=  107 fps=5.2 q=42.0 size=       1kB time=00:00:01.83 bitrate=   3.2kbits/s speed=0.0889x    frame=  110 fps=5.2 q=42.0 size=       1kB time=00:00:01.95 bitrate=   3.0kbits/s speed=0.0926x    frame=  113 fps=5.2 q=42.0 size=       1kB time=00:00:02.08 bitrate=   2.8kbits/s speed=0.0962x    frame=  115 fps=5.2 q=42.0 size=       1kB time=00:00:02.16 bitrate=   2.7kbits/s speed=0.0973x    frame=  119 fps=5.2 q=42.0 size=       1kB time=00:00:02.33 bitrate=   2.5kbits/s speed=0.101x    frame=  123 fps=5.2 q=42.0 size=       1kB time=00:00:02.50 bitrate=   2.3kbits/s speed=0.105x    frame=  126 fps=5.2 q=41.0 size=       1kB time=00:00:02.62 bitrate=   2.2kbits/s speed=0.108x    frame=  128 fps=5.1 q=41.0 size=       1kB time=00:00:02.70 bitrate=   2.2kbits/s speed=0.108x    frame=  132 fps=5.1 q=41.0 size=       1kB time=00:00:02.87 bitrate=   2.0kbits/s speed=0.112x    frame=  136 fps=5.1 q=41.0 size=       1kB time=00:00:03.04 bitrate=   1.9kbits/s speed=0.115x    frame=  139 fps=5.2 q=41.0 size=       1kB time=00:00:03.16 bitrate=   1.9kbits/s speed=0.117x    frame=  141 fps=5.1 q=41.0 size=       1kB time=00:00:03.25 bitrate=   1.8kbits/s speed=0.118x    frame=  143 fps=5.1 q=41.0 size=       1kB time=00:00:03.33 bitrate=   1.8kbits/s speed=0.118x    frame=  147 fps=5.1 q=41.0 size=       1kB time=00:00:03.50 bitrate=   1.7kbits/s speed=0.122x    frame=  150 fps=5.1 q=41.0 size=       1kB time=00:00:03.62 bitrate=   1.6kbits/s speed=0.123x    frame=  153 fps=5.1 q=40.0 size=       1kB time=00:00:03.75 bitrate=   1.6kbits/s speed=0.125x    frame=  157 fps=5.1 q=40.0 size=    3823kB time=00:00:03.91 bitrate=7993.5kbits/s speed=0.128x    frame=  163 fps=5.1 q=40.0 size=    3823kB time=00:00:04.16 bitrate=7514.0kbits/s speed=0.132x    frame=  169 fps=5.2 q=40.0 size=    3823kB time=00:00:04.41 bitrate=7088.8kbits/s speed=0.137x    frame=  172 fps=5.2 q=40.0 size=    3823kB time=00:00:04.54 bitrate=6893.8kbits/s speed=0.138x    frame=  176 fps=5.3 q=40.0 size=    3823kB time=00:00:04.70 bitrate=6650.8kbits/s speed=0.141x    frame=  181 fps=5.3 q=39.0 size=    3823kB time=00:00:04.91 bitrate=6368.1kbits/s speed=0.143x    frame=  185 fps=5.3 q=39.0 size=    3823kB time=00:00:05.08 bitrate=6160.2kbits/s speed=0.146x    frame=  188 fps=5.3 q=39.0 size=    3823kB time=00:00:05.20 bitrate=6012.4kbits/s speed=0.147x    frame=  191 fps=5.3 q=39.0 size=    3823kB time=00:00:05.33 bitrate=5871.5kbits/s speed=0.148x    frame=  194 fps=5.3 q=39.0 size=    3823kB time=00:00:05.45 bitrate=5737.0kbits/s speed=0.149x    frame=  198 fps=5.3 q=39.0 size=    3823kB time=00:00:05.62 bitrate=5566.7kbits/s speed=0.151x    frame=  201 fps=5.3 q=39.0 size=    3823kB time=00:00:05.75 bitrate=5445.7kbits/s speed=0.152x    frame=  205 fps=5.3 q=39.0 size=    3823kB time=00:00:05.91 bitrate=5292.1kbits/s speed=0.154x    frame=  209 fps=5.3 q=39.0 size=    3823kB time=00:00:06.08 bitrate=5147.7kbits/s speed=0.156x    frame=  212 fps=5.3 q=37.0 size=    3823kB time=00:00:06.20 bitrate=5044.0kbits/s speed=0.156x    frame=  220 fps=5.4 q=39.0 size=    5637kB time=00:00:06.54 bitrate=7058.0kbits/s speed=0.162x    frame=  223 fps=5.4 q=39.0 size=    5637kB time=00:00:06.66 bitrate=6925.7kbits/s speed=0.162x    frame=  226 fps=5.4 q=39.0 size=    5637kB time=00:00:06.79 bitrate=6798.3kbits/s speed=0.163x    frame=  231 fps=5.5 q=39.0 size=    5637kB time=00:00:07.00 bitrate=6596.3kbits/s speed=0.165x    frame=  233 fps=5.4 q=39.0 size=    5637kB time=00:00:07.08 bitrate=6519.0kbits/s speed=0.165x    frame=  237 fps=5.5 q=39.0 size=    5637kB time=00:00:07.25 bitrate=6368.9kbits/s speed=0.167x    frame=  240 fps=5.5 q=39.0 size=    5637kB time=00:00:07.37 bitrate=6260.9kbits/s speed=0.168x    frame=  244 fps=5.5 q=39.0 size=    6417kB time=00:00:07.54 bitrate=6969.6kbits/s speed=0.169x    frame=  250 fps=5.5 q=38.0 size=    6417kB time=00:00:07.79 bitrate=6746.0kbits/s speed=0.172x    frame=  256 fps=5.6 q=38.0 size=    6417kB time=00:00:08.04 bitrate=6536.3kbits/s speed=0.175x    frame=  258 fps=5.5 q=38.0 size=    6417kB time=00:00:08.12 bitrate=6469.6kbits/s speed=0.175x    frame=  262 fps=5.6 q=38.0 size=    6417kB time=00:00:08.29 bitrate=6339.3kbits/s speed=0.176x    frame=  265 fps=5.6 q=38.0 size=    6417kB time=00:00:08.41 bitrate=6245.2kbits/s speed=0.176x    frame=  269 fps=5.5 q=38.0 size=    6417kB time=00:00:08.58 bitrate=6124.4kbits/s speed=0.177x    frame=  275 fps=5.6 q=38.0 size=    6417kB time=00:00:08.83 bitrate=5951.1kbits/s speed=0.18x    frame=  278 fps=5.6 q=38.0 size=    6417kB time=00:00:08.95 bitrate=5868.0kbits/s speed=0.18x    frame=  283 fps=5.6 q=38.0 size=    6417kB time=00:00:09.16 bitrate=5734.3kbits/s speed=0.182x    frame=  288 fps=5.7 q=37.0 size=    6417kB time=00:00:09.37 bitrate=5607.1kbits/s speed=0.184x    frame=  291 fps=5.7 q=37.0 size=    6417kB time=00:00:09.50 bitrate=5533.3kbits/s speed=0.185x    frame=  294 fps=5.7 q=37.0 size=    6417kB time=00:00:09.62 bitrate=5461.4kbits/s speed=0.185x    frame=  300 fps=5.7 q=37.0 size=    6417kB time=00:00:09.87 bitrate=5323.2kbits/s speed=0.187x    frame=  304 fps=5.7 q=37.0 size=    6417kB time=00:00:10.04 bitrate=5234.7kbits/s speed=0.188x    frame=  309 fps=5.7 q=37.0 size=    6417kB time=00:00:10.25 bitrate=5128.5kbits/s speed=0.19x    frame=  313 fps=5.7 q=37.0 size=    6417kB time=00:00:10.41 bitrate=5046.2kbits/s speed=0.19x    frame=  320 fps=5.8 q=37.0 size=    6417kB time=00:00:10.70 bitrate=4909.1kbits/s speed=0.193x    frame=  322 fps=5.7 q=37.0 size=    6417kB time=00:00:10.79 bitrate=4870.9kbits/s speed=0.192x    frame=  328 fps=5.8 q=37.0 size=    8594kB time=00:00:11.04 bitrate=6375.6kbits/s speed=0.195x    frame=  333 fps=5.8 q=36.0 size=    8594kB time=00:00:11.25 bitrate=6257.7kbits/s speed=0.197x    frame=  340 fps=5.9 q=36.0 size=    8594kB time=00:00:11.54 bitrate=6099.4kbits/s speed=0.199x    frame=  344 fps=5.9 q=36.0 size=    8594kB time=00:00:11.70 bitrate=6012.9kbits/s speed= 0.2x    frame=  349 fps=5.9 q=36.0 size=    8594kB time=00:00:11.91 bitrate=5907.5kbits/s speed=0.201x    frame=  354 fps=5.9 q=36.0 size=    8594kB time=00:00:12.12 bitrate=5806.1kbits/s speed=0.203x    frame=  360 fps=6.0 q=36.0 size=    8594kB time=00:00:12.37 bitrate=5688.9kbits/s speed=0.205x    frame=  368 fps=6.0 q=35.0 size=    8594kB time=00:00:12.70 bitrate=5539.8kbits/s speed=0.208x    frame=  374 fps=6.1 q=35.0 size=    8594kB time=00:00:12.95 bitrate=5432.9kbits/s speed=0.21x    frame=  380 fps=6.1 q=35.0 size=    8594kB time=00:00:13.20 bitrate=5330.1kbits/s speed=0.212x    frame=  384 fps=6.1 q=35.0 size=    8594kB time=00:00:13.37 bitrate=5263.6kbits/s speed=0.213x    frame=  392 fps=6.2 q=34.0 size=    8594kB time=00:00:13.70 bitrate=5135.7kbits/s speed=0.215x    frame=  400 fps=6.2 q=34.0 size=    8594kB time=00:00:14.04 bitrate=5013.6kbits/s speed=0.218x    frame=  408 fps=6.3 q=34.0 size=    8594kB time=00:00:14.37 bitrate=4897.4kbits/s speed=0.221x    frame=  414 fps=6.3 q=33.0 size=    8594kB time=00:00:14.62 bitrate=4813.7kbits/s speed=0.223x    frame=  420 fps=6.3 q=33.0 size=    8594kB time=00:00:14.87 bitrate=4732.8kbits/s speed=0.224x    frame=  428 fps=6.3 q=33.0 size=   10705kB time=00:00:15.20 bitrate=5766.1kbits/s speed=0.226x    frame=  434 fps=6.4 q=33.0 size=   10705kB time=00:00:15.45 bitrate=5672.8kbits/s speed=0.228x    frame=  437 fps=6.4 q=33.0 size=   10705kB time=00:00:15.58 bitrate=5627.3kbits/s speed=0.228x    frame=  440 fps=6.4 q=33.0 size=   10705kB time=00:00:15.70 bitrate=5582.6kbits/s speed=0.228x    frame=  447 fps=6.4 q=33.0 size=   10705kB time=00:00:16.00 bitrate=5480.7kbits/s speed=0.23x    frame=  452 fps=6.4 q=32.0 size=   10705kB time=00:00:16.20 bitrate=5410.4kbits/s speed=0.229x    frame=  457 fps=6.4 q=32.0 size=   10705kB time=00:00:16.41 bitrate=5341.5kbits/s speed=0.231x    frame=  460 fps=6.4 q=33.0 size=   10705kB time=00:00:16.54 bitrate=5301.1kbits/s speed=0.231x    frame=  462 fps=6.4 q=33.0 size=   10705kB time=00:00:16.62 bitrate=5274.7kbits/s speed=0.23x    frame=  467 fps=6.4 q=33.0 size=   10705kB time=00:00:16.83 bitrate=5209.5kbits/s speed=0.23x    frame=  475 fps=6.4 q=33.0 size=   10705kB time=00:00:17.16 bitrate=5108.1kbits/s speed=0.232x    frame=  483 fps=6.5 q=33.0 size=   12594kB time=00:00:17.50 bitrate=5895.1kbits/s speed=0.235x    frame=  484 fps=6.4 q=33.0 size=   12594kB time=00:00:17.54 bitrate=5881.0kbits/s speed=0.234x    frame=  489 fps=6.5 q=33.0 size=   12594kB time=00:00:17.75 bitrate=5812.1kbits/s speed=0.235x    frame=  493 fps=6.5 q=33.0 size=   12594kB time=00:00:17.91 bitrate=5757.9kbits/s speed=0.235x    frame=  500 fps=6.5 q=33.0 size=   12594kB time=00:00:18.20 bitrate=5665.9kbits/s speed=0.237x    frame=  500 fps=6.0 q=-1.0 Lsize=   15325kB time=00:00:20.70 bitrate=6062.3kbits/s speed=0.25x    
video:15320kB audio:0kB subtitle:0kB other streams:0kB global headers:0kB muxing overhead: 0.031138%
bench: utime=273.676s
bench: maxrss=1818464kB
[libx264 @ 0x4052120] frame I:8     Avg QP:28.12  size:116664
[libx264 @ 0x4052120] frame P:269   Avg QP:33.16  size: 38698
[libx264 @ 0x4052120] frame B:223   Avg QP:32.20  size: 19481
[libx264 @ 0x4052120] consecutive B-frames: 37.0%  8.4%  6.6% 48.0%
[libx264 @ 0x4052120] mb I  I16..4: 39.2% 58.4%  2.4%
[libx264 @ 0x4052120] mb P  I16..4: 23.8% 15.5%  0.2%  P16..4: 21.3%  1.8%  0.9%  0.0%  0.0%    skip:36.5%
[libx264 @ 0x4052120] mb B  I16..4:  1.1%  1.6%  0.1%  B16..8: 29.0%  1.7%  0.2%  direct: 0.7%  skip:65.7%  L0:40.4% L1:57.6% BI: 2.0%
[libx264 @ 0x4052120] final ratefactor: 30.06
[libx264 @ 0x4052120] 8x8 transform intra:41.6% inter:90.2%
[libx264 @ 0x4052120] direct mvs  spatial:98.7% temporal:1.3%
[libx264 @ 0x4052120] coded y,uvDC,uvAC intra: 9.1% 21.0% 1.0% inter: 3.3% 4.1% 0.0%
[libx264 @ 0x4052120] i16 v,h,dc,p: 32% 30%  8% 31%
[libx264 @ 0x4052120] i8 v,h,dc,ddl,ddr,vr,hd,vl,hu: 13% 10% 49%  4%  5%  5%  6%  4%  5%
[libx264 @ 0x4052120] i4 v,h,dc,ddl,ddr,vr,hd,vl,hu: 14% 15%  8%  7% 14% 11% 16%  6% 10%
[libx264 @ 0x4052120] i8c dc,h,v,p: 81% 11%  6%  2%
[libx264 @ 0x4052120] Weighted P-Frames: Y:1.1% UV:0.7%
[libx264 @ 0x4052120] ref P L0: 65.0% 16.0% 11.0%  3.9%  3.0%  1.1%
[libx264 @ 0x4052120] ref B L0: 89.5%  7.3%  2.7%  0.5%
[libx264 @ 0x4052120] ref B L1: 97.9%  2.1%
[libx264 @ 0x4052120] kb/s:6023.97
